<?xml version="1.0" standalone="no"?>
<svg version="1.0" xmlns="http://www.w3.org/2000/svg"
 width="406.000000pt" height="675.000000pt" viewBox="0 0 406.000000 675.000000"
 preserveAspectRatio="xMidYMid meet">

<g transform="translate(0.000000,675.000000) scale(0.100000,-0.100000)"
fill="#000000" stroke="none">
<path d="M3673 6390 c-83 -80 -107 -89 -97 -35 7 39 -8 48 -26 15 -17 -32 -8
-74 17 -85 21 -9 23 -15 19 -77 l-3 -68 57 0 c80 0 122 -10 116 -26 -9 -23 13
-26 40 -5 15 11 30 18 35 16 4 -3 15 5 24 19 13 19 14 29 5 45 -14 27 -19 26
-64 -4 -53 -36 -46 -6 10 44 26 23 51 41 55 41 14 0 10 34 -5 56 -14 18 -18
15 -90 -56 -42 -41 -76 -69 -76 -62 0 15 107 134 132 146 10 5 18 12 18 16 0
11 -76 90 -86 90 -5 0 -42 -32 -81 -70z m100 17 c-13 -22 -143 -140 -143 -130
0 25 113 142 138 143 8 0 10 -5 5 -13z"/>
<path d="M2092 6311 c15 -17 30 -41 33 -53 6 -22 122 -138 137 -138 14 0 8 45
-8 70 -43 64 -119 131 -163 145 l-25 8 26 -32z"/>
<path d="M1500 6303 c-67 -47 -146 -173 -108 -173 18 0 128 111 128 130 0 9 7
26 16 38 19 28 0 30 -36 5z"/>
<path d="M1648 6259 c-135 -32 -162 -51 -315 -222 -27 -30 -33 -45 -39 -106
-5 -50 -11 -71 -20 -71 -8 0 -14 7 -14 15 0 8 -4 15 -8 15 -19 0 -27 -22 -24
-64 3 -36 8 -45 25 -48 13 -2 40 -33 74 -83 49 -72 54 -85 51 -125 -2 -28 4
-59 14 -80 35 -73 144 -150 263 -186 86 -26 280 -26 354 0 112 39 209 106 247
172 20 33 25 10 9 -42 -9 -31 -33 -69 -62 -102 -48 -53 -49 -53 -148 -73 -86
-18 -126 -20 -285 -16 -102 2 -210 10 -240 17 -48 10 -60 18 -90 58 -19 26
-42 55 -52 65 -9 9 -23 36 -29 60 -16 54 -29 69 -29 31 0 -45 43 -124 96 -176
26 -27 52 -48 58 -48 6 0 19 -12 29 -25 16 -23 16 -25 1 -25 -9 0 -43 7 -76
16 -33 8 -65 13 -71 11 -7 -2 13 -30 44 -61 31 -31 55 -56 54 -56 -2 0 -40 7
-85 16 -45 8 -84 13 -86 11 -3 -2 14 -21 36 -41 22 -20 40 -38 40 -41 0 -3
-25 -5 -55 -5 -68 0 -71 -14 -8 -55 52 -34 57 -46 27 -59 -21 -10 -21 -10 -4
-35 14 -20 19 -54 24 -152 l6 -126 -27 -11 c-71 -28 -95 -29 -121 -5 -23 22
-25 30 -24 108 0 46 5 101 11 122 29 114 21 313 -16 400 -21 52 -36 41 -31
-22 3 -30 1 -55 -3 -55 -4 0 -19 14 -33 32 -14 18 -27 30 -29 28 -3 -3 -1 -27
3 -55 5 -27 9 -66 9 -84 l1 -35 -35 34 c-19 18 -37 31 -40 29 -2 -3 0 -22 6
-43 6 -20 9 -46 7 -58 -3 -20 -3 -20 -31 2 -15 12 -30 20 -33 17 -3 -2 0 -26
6 -52 6 -26 9 -50 6 -52 -3 -3 -18 4 -35 16 -16 12 -44 24 -62 28 l-33 6 28
-47 c31 -52 29 -67 -6 -44 -38 25 -94 39 -124 32 l-27 -7 34 -28 c38 -31 36
-45 -5 -29 -45 17 -57 13 -50 -15 6 -24 5 -24 -49 -24 -31 1 -73 -5 -94 -11
-68 -23 -161 -98 -148 -121 3 -4 -2 -23 -10 -43 -22 -52 -20 -138 4 -167 23
-28 26 -22 35 61 8 77 62 155 136 195 50 27 63 30 150 30 l95 0 109 -65 c94
-55 119 -65 174 -71 44 -5 70 -13 84 -26 19 -20 19 -20 -11 -68 -56 -88 -61
-197 -15 -287 13 -25 14 -32 2 -39 -19 -13 -29 -11 -115 16 -61 19 -92 23
-143 20 -70 -6 -84 -13 -74 -38 8 -21 11 -21 64 -2 47 16 100 20 100 6 0 -18
109 -43 158 -36 26 4 82 6 125 5 95 -1 178 21 205 55 19 23 20 24 72 10 75
-20 75 -28 0 -20 -61 6 -64 6 -44 -9 12 -9 55 -27 95 -40 63 -21 69 -25 39
-25 -87 -2 70 -51 163 -51 30 0 86 10 123 22 l69 22 -40 6 -40 6 78 23 c90 28
113 47 44 37 -52 -8 -74 8 -24 18 17 4 68 16 112 29 l80 22 -45 5 -45 5 65 35
65 35 -60 5 -60 5 43 23 c53 28 53 42 1 42 l-42 0 42 45 c44 48 61 81 61 121
0 30 12 30 108 4 86 -24 82 -24 82 -6 0 9 -33 24 -89 42 l-89 29 -4 49 c-2 28
1 50 8 53 5 2 39 -5 75 -17 81 -25 102 -26 72 -1 -12 10 -49 24 -82 31 -33 7
-65 18 -70 24 -4 6 -11 34 -15 61 -4 28 -9 62 -12 77 -5 24 0 31 40 55 25 15
46 31 46 35 0 5 -20 8 -45 8 -25 0 -45 3 -45 6 0 4 19 24 43 46 l42 39 -45 -6
c-25 -4 -61 -9 -80 -12 l-34 -6 37 33 c37 32 73 87 64 96 -3 3 -32 -2 -65 -10
-84 -22 -101 -21 -69 4 14 11 29 20 35 20 39 0 126 120 144 200 14 60 24 70
108 100 36 12 78 33 93 46 16 13 40 27 53 30 31 8 25 30 -7 27 -20 -2 -27 5
-43 43 -10 25 -31 55 -47 67 -24 17 -29 28 -29 63 0 25 -6 47 -15 54 -12 10
-15 10 -15 -4 0 -9 -7 -16 -15 -16 -12 0 -15 13 -15 60 0 73 -10 91 -106 185
-87 86 -142 117 -265 150 -114 30 -227 32 -341 4z m195 -16 c-18 -2 -48 -2
-65 0 -18 2 -4 4 32 4 36 0 50 -2 33 -4z m-125 -10 c-10 -2 -26 -2 -35 0 -10
3 -2 5 17 5 19 0 27 -2 18 -5z m220 0 c-10 -2 -26 -2 -35 0 -10 3 -2 5 17 5
19 0 27 -2 18 -5z m-281 -9 c-3 -3 -12 -4 -19 -1 -8 3 -5 6 6 6 11 1 17 -2 13
-5z m330 0 c-3 -3 -12 -4 -19 -1 -8 3 -5 6 6 6 11 1 17 -2 13 -5z m-22 -45
l30 -13 -45 -3 c-90 -6 -112 -13 -105 -32 22 -69 -138 -170 -274 -174 -46 -1
-56 2 -76 25 -21 25 -24 26 -38 10 -9 -9 -28 -46 -43 -82 -35 -82 -48 -98 -38
-45 40 221 205 341 459 331 55 -2 114 -10 130 -17z m-465 -23 c0 -3 -15 -14
-32 -26 l-33 -22 30 26 c31 27 35 29 35 22z m661 -13 c13 -17 13 -17 -6 -3
-11 8 -22 16 -24 17 -2 2 0 3 6 3 6 0 17 -8 24 -17z m-61 -193 c0 -5 -4 -10
-10 -10 -5 0 -10 5 -10 10 0 6 5 10 10 10 6 0 10 -4 10 -10z m227 -92 c-2 -13
-4 -5 -4 17 -1 22 1 32 4 23 2 -10 2 -28 0 -40z m-990 5 c-3 -10 -5 -4 -5 12
0 17 2 24 5 18 2 -7 2 -21 0 -30z m373 27 c0 -5 -4 -10 -10 -10 -5 0 -10 5
-10 10 0 6 5 10 10 10 6 0 10 -4 10 -10z m617 -127 c-3 -10 -5 -2 -5 17 0 19
2 27 5 18 2 -10 2 -26 0 -35z m-990 -15 c-3 -7 -5 -2 -5 12 0 14 2 19 5 13 2
-7 2 -19 0 -25z m508 3 c3 -5 1 -12 -5 -16 -5 -3 -10 1 -10 9 0 18 6 21 15 7z
m429 -28 c-12 -51 -53 -120 -86 -148 -38 -33 -152 -89 -169 -83 -7 2 19 24 56
48 65 42 155 137 178 187 14 32 29 29 21 -4z m27 -60 c-12 -20 -14 -14 -5 12
4 9 9 14 11 11 3 -2 0 -13 -6 -23z m-721 -33 c0 -5 -5 -10 -11 -10 -5 0 -7 5
-4 10 3 6 8 10 11 10 2 0 4 -4 4 -10z m682 -47 c-34 -52 -106 -106 -171 -129
-150 -51 -416 -39 -555 26 -46 22 -126 85 -126 100 0 5 17 -7 38 -26 83 -79
214 -117 407 -118 107 0 142 3 200 21 91 29 155 71 196 132 43 63 52 57 11 -6z
m-823 -77 c50 -53 187 -103 315 -115 79 -8 80 -8 21 -9 -33 -1 -87 5 -120 12
-33 8 -61 13 -63 11 -7 -7 9 -25 22 -25 7 0 13 -7 13 -15 0 -19 -27 -12 -81
22 -70 45 -166 143 -138 143 5 0 19 -11 31 -24z m811 5 c0 -15 -76 -83 -137
-123 -73 -48 -162 -69 -290 -66 l-98 1 122 6 c67 4 125 10 129 14 4 4 -8 7
-27 8 l-34 1 35 10 c19 5 42 15 50 22 8 7 37 19 64 26 63 17 143 61 162 88 16
24 24 28 24 13z m-287 -128 c-13 -2 -33 -2 -45 0 -13 2 -3 4 22 4 25 0 35 -2
23 -4z m-296 -39 c-3 -3 -12 -4 -19 -1 -8 3 -5 6 6 6 11 1 17 -2 13 -5z m46
-11 c-7 -2 -19 -2 -25 0 -7 3 -2 5 12 5 14 0 19 -2 13 -5z m398 -356 c82 -35
114 -124 106 -289 -6 -109 -25 -160 -69 -186 -42 -25 -45 -6 -6 36 30 31 37
46 42 97 8 77 -7 174 -35 232 -17 36 -32 50 -68 67 -43 19 -63 21 -276 21
-256 0 -308 -8 -353 -56 -15 -16 -30 -29 -34 -29 -19 0 -5 32 30 69 32 34 44
40 97 46 33 3 65 8 70 11 6 2 112 2 236 0 168 -3 234 -8 260 -19z m-176 -107
c3 -5 -3 -10 -15 -10 -12 0 -18 5 -15 10 3 6 10 10 15 10 5 0 12 -4 15 -10z
m160 0 c3 -5 -3 -10 -15 -10 -12 0 -18 5 -15 10 3 6 10 10 15 10 5 0 12 -4 15
-10z m-622 -41 c26 -7 41 -18 47 -35 13 -33 13 -214 1 -214 -20 0 -26 27 -26
113 0 98 -11 117 -67 117 -18 0 -28 5 -28 15 0 18 21 19 73 4z m-318 -89 c-3
-4 -21 -11 -41 -15 -20 -3 -47 -17 -61 -31 -23 -23 -63 -26 -63 -4 0 15 55 44
105 56 50 11 70 10 60 -6z m857 -19 c55 -17 86 -45 72 -68 -51 -87 -405 -87
-458 -1 -15 24 6 43 74 68 47 17 72 20 165 16 61 -2 127 -9 147 -15z m-922
-56 c0 -8 -7 -15 -16 -15 -14 0 -14 3 -4 15 7 8 14 15 16 15 2 0 4 -7 4 -15z
m1000 -92 c0 -71 -21 -165 -50 -229 -38 -85 -69 -104 -170 -104 -103 0 -121 6
-114 36 8 32 -11 54 -47 54 -34 0 -44 19 -61 111 -10 52 -9 58 11 78 15 15 21
31 19 46 -5 21 -3 23 21 13 14 -5 80 -10 146 -10 95 0 132 4 175 20 30 10 58
20 63 21 4 0 7 -16 7 -36z m-608 -3 c31 -28 32 -29 11 -30 -41 0 -24 -18 29
-29 28 -7 57 -16 65 -22 18 -16 -2 -49 -30 -49 -34 0 -97 -20 -97 -30 0 -6 32
-10 70 -10 53 0 70 -3 70 -14 0 -20 -19 -33 -70 -46 -74 -19 -80 -21 -80 -30
0 -5 12 -10 28 -12 l27 -3 -39 -23 c-47 -28 -57 -21 -72 51 -6 29 -15 51 -20
51 -5 -1 -53 -5 -108 -8 l-99 -7 5 48 c3 26 16 70 29 97 24 49 25 50 104 72
113 31 138 30 177 -6z m168 -8 c0 -9 -58 -32 -80 -32 -9 0 -8 6 5 20 17 19 75
28 75 12z m-30 -247 c14 -8 42 -14 63 -15 27 0 37 -4 34 -12 -9 -27 -137 4
-137 32 0 13 10 12 40 -5z"/>
<path d="M1715 4711 c-45 -11 -77 -31 -72 -44 2 -7 19 -21 38 -32 29 -17 52
-20 164 -20 107 0 138 3 173 19 50 22 52 43 7 65 -34 17 -259 25 -310 12z"/>
<path d="M3452 6162 c51 -54 105 -137 133 -202 25 -61 29 -64 44 -37 11 21 9
29 -17 68 -16 24 -46 70 -67 102 -42 64 -97 117 -122 117 -10 0 -1 -16 29 -48z"/>
<path d="M3442 6085 c3 -11 9 -28 13 -39 7 -16 6 -17 -13 -7 -11 6 -28 11 -36
11 -13 0 -13 -4 0 -35 7 -19 14 -44 14 -55 l0 -22 -35 22 c-40 24 -40 23 -20
-42 8 -27 11 -48 8 -48 -3 0 -27 16 -53 35 -26 19 -50 35 -53 35 -3 0 -1 -15
4 -32 5 -18 9 -43 9 -56 0 -22 -1 -22 -31 -7 -17 9 -33 14 -36 12 -2 -3 9 -31
25 -63 16 -33 40 -87 52 -121 12 -35 26 -63 29 -63 12 0 87 84 110 122 12 21
48 57 79 81 49 37 57 48 60 79 2 23 -5 53 -19 80 -24 49 -116 146 -107 113z"/>
<path d="M2897 5782 c-25 -28 -22 -37 36 -105 62 -73 133 -206 143 -265 4 -24
10 -44 14 -47 4 -2 22 9 41 24 l34 29 -18 68 c-9 38 -28 92 -42 119 -28 57
-152 195 -176 195 -9 0 -23 -8 -32 -18z"/>
<path d="M3141 5763 l-1 -41 -31 15 c-16 8 -32 13 -34 11 -2 -2 18 -49 45
-103 28 -55 53 -115 56 -132 3 -18 9 -33 13 -33 4 0 22 15 40 34 31 32 33 38
27 77 -9 55 -36 117 -67 150 -13 14 -29 35 -36 45 -10 17 -12 14 -12 -23z"/>
<path d="M3485 5760 c-27 -30 -12 -34 15 -5 13 14 19 25 13 25 -5 0 -18 -9
-28 -20z"/>
<path d="M2894 5583 c14 -26 24 -48 22 -50 -2 -2 -19 5 -37 16 -44 27 -63 28
-50 2 12 -21 31 -101 25 -101 -3 0 -23 9 -44 20 -37 19 -52 16 -31 -5 16 -16
51 -156 51 -202 0 -24 2 -43 5 -43 29 0 215 150 215 174 0 28 -84 177 -115
205 -55 48 -71 41 -41 -16z"/>
<path d="M2707 5384 l5 -59 -33 35 -34 35 -5 -43 -5 -44 -45 36 c-24 19 -46
33 -48 32 -2 -2 3 -38 11 -80 8 -42 12 -76 9 -76 -4 0 -26 19 -49 42 l-43 42
0 -48 0 -49 -40 61 c-22 34 -44 62 -50 62 -6 0 -8 -21 -4 -57 6 -55 6 -57 -10
-38 l-17 20 5 -20 c21 -83 46 -230 57 -334 11 -108 14 -121 26 -105 10 13 12
33 8 64 -6 44 -5 46 47 96 29 28 69 61 88 74 69 46 185 133 198 148 32 40 2
189 -47 236 l-30 29 6 -59z"/>
<path d="M1025 5345 c-16 -13 -26 -28 -22 -32 10 -9 79 27 85 45 6 20 -31 13
-63 -13z"/>
<path d="M2562 4984 c-18 -14 -30 -30 -27 -35 10 -14 21 -11 54 17 55 46 30
63 -27 18z"/>
<path d="M507 4622 c-72 -110 -59 -226 32 -267 59 -26 65 -20 62 66 -1 45 4
92 12 117 18 52 6 54 -41 10 l-34 -33 4 73 c3 39 2 72 -2 72 -4 0 -19 -17 -33
-38z"/>
<path d="M652 4484 c-20 -76 -16 -122 17 -163 26 -33 38 -39 98 -50 37 -7 95
-11 128 -9 l60 3 -3 60 c-1 33 -5 80 -8 104 l-6 45 -21 -37 c-21 -37 -41 -52
-58 -41 -5 3 -20 26 -33 52 l-24 47 -12 -43 c-7 -23 -17 -42 -21 -42 -5 0 -15
21 -22 47 -15 52 -32 65 -42 33 -8 -24 -25 -17 -25 10 0 37 -16 28 -28 -16z"/>
<path d="M1070 4454 c-32 -45 -33 -46 -45 -25 -10 20 -13 16 -24 -46 -7 -37
-12 -79 -10 -92 5 -31 43 -58 93 -67 36 -6 39 -5 31 12 -19 46 -24 109 -15
181 6 42 8 78 6 80 -2 3 -19 -17 -36 -43z"/>
<path d="M2664 4469 c19 -82 105 -227 127 -213 27 17 -30 140 -93 200 -39 37
-40 38 -34 13z"/>
<path d="M2317 4302 c-44 -11 -161 -71 -154 -78 1 -2 47 13 102 31 55 19 119
35 143 35 23 0 42 4 42 9 0 15 -79 17 -133 3z"/>
<path d="M1994 4069 c-27 -30 -107 -68 -158 -75 -55 -8 -138 16 -197 56 -57
39 -66 38 -40 -6 12 -19 21 -37 21 -39 0 -3 -22 9 -49 25 -64 40 -80 38 -42
-6 50 -56 139 -244 162 -342 12 -48 23 -93 25 -99 2 -9 29 -13 88 -13 l85 0 6
38 c18 107 97 294 166 392 23 33 39 63 36 66 -3 3 -29 -12 -59 -34 -29 -23
-54 -39 -56 -37 -2 2 6 22 18 45 24 48 22 60 -6 29z"/>
<path d="M1410 4043 c0 -4 11 -26 25 -48 13 -22 25 -43 25 -47 0 -4 -27 9 -61
28 -33 20 -63 33 -66 30 -3 -3 6 -26 21 -52 14 -25 26 -49 26 -51 0 -2 -19 11
-42 30 -46 38 -108 77 -121 77 -4 0 21 -36 57 -80 68 -84 110 -172 144 -298
11 -40 21 -75 23 -76 5 -5 233 15 238 20 10 9 -19 128 -44 181 -46 101 -125
216 -176 256 -27 21 -49 35 -49 30z"/>
<path d="M2116 3977 c-92 -94 -184 -278 -185 -369 l-1 -36 88 -7 c48 -3 102
-7 121 -8 l34 -2 18 70 c37 150 70 217 158 323 62 75 29 68 -76 -16 -24 -18
-43 -31 -43 -28 0 3 13 27 29 53 17 26 28 49 26 51 -2 2 -30 -10 -61 -27 -32
-17 -59 -29 -62 -26 -2 2 5 19 17 38 44 71 15 64 -63 -16z"/>
<path d="M1055 3951 c-2 -5 5 -20 16 -35 25 -32 23 -32 -32 -2 -53 29 -89 40
-89 28 0 -5 11 -15 25 -22 23 -12 111 -141 153 -225 11 -22 28 -67 38 -100 10
-33 23 -63 29 -67 26 -19 193 4 202 28 7 20 -25 120 -67 209 -26 55 -55 96
-91 130 -28 28 -49 42 -45 33 3 -10 9 -26 13 -35 5 -14 1 -13 -24 5 -43 30
-121 63 -128 53z"/>
<path d="M2510 3943 c-19 -8 -47 -24 -61 -34 -36 -25 -41 -24 -33 9 6 26 4 25
-41 -18 -78 -75 -131 -177 -153 -299 -9 -51 -9 -53 16 -62 14 -6 60 -13 102
-16 l77 -6 23 74 c12 41 26 79 30 84 4 6 23 37 41 70 53 99 89 149 122 173 30
21 31 22 8 22 -13 0 -44 -11 -68 -25 -45 -27 -53 -24 -28 9 29 38 20 43 -35
19z"/>
<path d="M530 3933 c-38 -5 -50 -17 -50 -50 0 -21 5 -23 50 -23 82 0 200 -29
273 -67 80 -43 162 -127 244 -252 61 -93 60 -89 33 -249 -10 -58 -10 -87 0
-150 25 -148 24 -168 -4 -216 -18 -30 -26 -59 -26 -90 0 -57 -18 -70 -121 -92
-86 -19 -278 -14 -344 8 -32 10 -45 22 -63 58 -21 42 -22 55 -20 205 3 134 0
170 -16 219 -17 55 -20 58 -32 41 -8 -10 -14 -28 -14 -38 0 -11 -27 -62 -60
-114 -83 -127 -186 -330 -220 -433 -81 -243 -117 -544 -89 -745 61 -449 241
-810 556 -1116 222 -216 398 -320 696 -413 588 -183 1207 -60 1702 339 188
152 323 325 448 575 77 156 128 314 163 509 71 394 -17 843 -235 1204 -74 123
-145 217 -181 239 -25 15 -31 24 -26 41 5 21 -8 57 -17 47 -3 -3 -18 -43 -33
-90 -27 -81 -28 -94 -29 -265 0 -209 -8 -236 -80 -263 -64 -23 -312 -22 -393
2 -70 21 -85 38 -81 94 1 23 -7 55 -21 84 -23 46 -23 49 -10 145 12 92 10 196
-6 326 -5 41 -2 57 22 100 31 59 84 127 158 205 80 84 201 137 342 150 l79 7
0 30 c0 28 -3 30 -50 38 -120 20 -294 -32 -399 -120 -94 -80 -206 -244 -206
-305 0 -19 -29 -38 -58 -38 -11 0 -39 8 -63 19 -109 47 -969 47 -1078 0 -24
-11 -57 -19 -73 -19 -26 0 -32 6 -54 58 -55 124 -72 150 -152 234 -86 89 -136
121 -240 152 -57 16 -169 26 -222 19z m1510 -564 c286 -10 339 -17 375 -43 19
-14 19 -16 1 -144 -21 -147 -18 -194 22 -292 28 -68 32 -136 16 -281 l-6 -57
-66 -30 c-37 -17 -121 -49 -187 -72 -108 -36 -122 -44 -132 -70 -8 -23 -30
-38 -104 -73 -52 -25 -115 -50 -141 -56 -111 -26 -271 -4 -301 42 -11 18 -34
27 -95 40 -43 10 -110 28 -148 40 l-69 24 -18 74 c-9 41 -27 112 -38 159 -30
121 -33 147 -19 180 12 28 16 30 69 30 111 0 106 37 -10 73 -15 5 -15 11 -2
69 13 53 13 79 2 169 -6 58 -9 117 -5 132 7 31 56 59 139 82 66 17 326 19 717
4z m-1020 -677 c0 -15 9 -47 20 -71 14 -29 20 -65 20 -110 0 -36 9 -98 19
-136 15 -52 17 -72 8 -77 -17 -11 -22 -2 -46 92 -22 85 -53 318 -44 333 9 14
23 -4 23 -31z m1596 6 c-3 -18 -11 -78 -16 -133 -14 -130 -51 -277 -67 -267
-10 6 -9 20 3 62 8 30 16 93 18 140 2 61 9 98 24 130 12 25 22 54 22 66 0 19
8 34 18 34 2 0 2 -15 -2 -32z m419 -16 c-8 -40 -19 -48 -89 -62 -67 -14 -79
-7 -70 38 5 27 12 32 43 37 20 4 52 12 71 19 43 16 54 8 45 -32z m-2356 19
c46 -9 61 -23 61 -58 0 -32 -12 -35 -81 -19 -67 15 -79 26 -79 70 0 26 2 28
28 22 15 -4 47 -11 71 -15z m21 -121 c23 0 30 -5 35 -30 9 -43 0 -50 -53 -43
-71 9 -82 18 -82 63 l0 40 36 -15 c20 -8 49 -15 64 -15z m2316 -36 c-6 -24
-15 -28 -93 -38 l-43 -6 0 40 c0 39 1 40 34 40 18 0 49 6 67 14 32 14 34 13
37 -6 2 -11 1 -31 -2 -44z m-2307 -73 l43 -6 -46 -63 -47 -63 -47 7 c-26 3
-49 8 -51 10 -2 2 10 19 28 39 20 23 31 46 31 67 0 27 2 30 23 23 12 -4 42
-10 66 -14z m2291 -7 c0 -29 14 -60 42 -90 l19 -21 -52 -7 c-60 -8 -72 0 -119
76 l-30 48 38 0 c20 0 44 5 52 10 28 18 50 12 50 -16z m-2385 -160 c23 -31 18
-81 -14 -127 -52 -76 -58 -79 -141 -66 -68 10 -74 10 -101 -10 l-29 -22 0 40
c0 54 12 82 57 132 60 67 89 81 156 76 42 -2 61 -8 72 -23z m2566 -7 c61 -46
100 -106 106 -161 6 -51 3 -53 -32 -30 -21 13 -34 14 -100 4 -70 -11 -78 -10
-97 7 -33 28 -78 105 -78 131 0 56 33 80 112 81 38 1 55 -5 89 -32z m-2075
-60 c-3 -14 -13 -27 -21 -31 -22 -8 -20 40 2 53 23 12 27 8 19 -22z m1434 -16
c-1 -25 -1 -25 -15 -7 -8 11 -15 29 -15 39 0 16 3 17 15 7 8 -7 15 -24 15 -39z
m-2069 -150 c3 -3 4 -27 1 -53 -5 -55 -13 -58 -71 -29 -66 34 -78 71 -29 90
23 9 88 4 99 -8z m2787 6 c24 -16 14 -56 -20 -77 -31 -19 -86 -36 -93 -28 -2
1 -5 26 -7 53 l-3 50 40 6 c48 7 66 6 83 -4z m-1545 -29 c20 -10 17 -13 -38
-34 -33 -13 -75 -23 -92 -23 -30 -1 -33 2 -33 27 0 16 3 32 7 35 11 12 133 8
156 -5z"/>
<path d="M2178 3194 c-52 -27 -31 -54 42 -54 46 0 84 27 75 53 -9 22 -78 23
-117 1z"/>
<path d="M1497 3053 c-17 -17 -6 -34 20 -31 36 4 45 38 10 38 -13 0 -27 -3
-30 -7z"/>
<path d="M2195 2871 c-17 -4 -40 -13 -50 -19 -17 -10 -13 -11 27 -12 48 0 98
16 98 32 0 9 -32 9 -75 -1z"/>
<path d="M1617 2763 c-23 -38 103 -72 148 -39 18 13 18 14 -5 26 -29 15 -135
26 -143 13z"/>
<path d="M2245 2636 c-12 -18 -13 -30 -6 -50 12 -30 37 -34 80 -11 40 20 47
46 21 67 -32 26 -76 23 -95 -6z"/>
<path d="M1362 2583 c2 -10 11 -19 21 -21 16 -3 17 -1 7 17 -13 25 -33 28 -28
4z"/>
<path d="M1730 2448 c-68 -9 -134 -36 -133 -53 2 -23 75 -27 186 -10 149 23
212 50 161 69 -22 8 -136 5 -214 -6z"/>
<path d="M2880 3704 c-132 -48 -272 -137 -310 -199 -19 -31 -27 -85 -14 -97 3
-4 62 32 131 79 69 47 146 92 172 100 77 25 78 27 21 33 l-55 5 49 35 c26 19
56 40 65 47 30 22 6 20 -59 -3z"/>
<path d="M671 3708 c9 -7 39 -29 65 -48 l49 -35 -55 -5 -55 -5 55 -19 c30 -10
112 -57 181 -102 69 -46 131 -84 137 -84 11 0 16 25 13 60 -2 19 -109 122
-159 154 -82 52 -280 124 -231 84z"/>
<path d="M728 3440 c23 -10 58 -31 78 -46 l36 -28 -48 -14 c-53 -15 -53 -16
18 -56 l33 -19 -32 -7 c-31 -7 -83 -35 -83 -45 0 -3 15 -11 33 -19 17 -7 51
-27 74 -44 53 -39 63 -77 35 -133 l-20 -40 20 7 c34 11 11 -11 -29 -28 -21 -9
-46 -19 -55 -22 -26 -8 -22 -23 8 -39 l27 -14 -32 -19 c-37 -22 -39 -32 -8
-43 21 -9 20 -10 -13 -24 -19 -8 -42 -17 -50 -19 -8 -3 9 -10 39 -17 61 -13
143 -2 215 29 42 17 43 20 49 72 4 30 13 73 21 95 11 32 13 76 9 199 l-6 159
-36 36 c-53 52 -193 99 -296 99 -29 0 -29 -1 13 -20z"/>
<path d="M2815 3453 c-77 -10 -190 -58 -225 -95 -17 -18 -20 -35 -20 -107 0
-47 -5 -115 -11 -150 -8 -51 -7 -78 5 -130 9 -36 19 -86 23 -111 8 -42 11 -45
58 -63 84 -31 144 -39 205 -26 30 7 48 14 40 17 -8 2 -31 11 -50 19 -33 14
-34 15 -12 24 30 11 28 21 -9 43 l-32 19 27 14 c31 16 35 43 6 43 -21 0 -100
36 -100 45 0 3 12 2 26 -1 l27 -7 -23 31 c-49 66 -24 124 76 173 l66 33 -39
23 c-21 12 -49 23 -63 23 -25 1 -25 1 -5 16 11 9 36 23 55 32 l35 15 -54 17
-53 17 55 36 c31 21 66 41 79 46 20 8 17 10 -17 9 -22 -1 -53 -3 -70 -5z"/>
</g>
</svg>
