<?xml version="1.0" standalone="no"?>
<!DOCTYPE svg PUBLIC "-//W3C//DTD SVG 20010904//EN"
 "http://www.w3.org/TR/2001/REC-SVG-20010904/DTD/svg10.dtd">
<svg version="1.0" xmlns="http://www.w3.org/2000/svg"
 width="255.000000pt" height="619.000000pt" viewBox="0 0 255.000000 619.000000"
 preserveAspectRatio="xMidYMid meet">

<g transform="translate(0.000000,619.000000) scale(0.100000,-0.100000)"
fill="#000000" stroke="none">
<path d="M1045 5501 c-71 -33 -147 -110 -177 -179 -12 -26 -23 -77 -26 -113
l-5 -67 -67 -6 c-85 -9 -174 -50 -241 -113 -64 -59 -95 -113 -128 -217 -25
-79 -29 -86 -89 -136 -72 -59 -122 -130 -122 -173 0 -28 6 -37 43 -66 26 -21
133 -40 222 -41 64 0 87 -4 115 -22 19 -12 56 -32 81 -44 l47 -23 4 -88 c3
-69 9 -100 30 -146 68 -146 196 -251 317 -260 16 -1 34 -36 91 -178 41 -101
69 -183 64 -190 -5 -8 -3 -10 6 -4 10 6 12 4 7 -9 -5 -11 -3 -15 5 -10 7 5 9
0 6 -14 -4 -14 -2 -20 4 -16 6 4 8 -2 3 -16 -4 -14 -3 -20 2 -17 11 7 37 -42
28 -51 -3 -3 -5 1 -5 8 0 7 -2 11 -5 8 -8 -7 16 -69 25 -63 4 2 12 -7 19 -21
16 -35 13 -44 -4 -14 -17 30 -20 21 -4 -14 7 -14 17 -23 22 -19 6 4 8 0 4 -11
-4 -10 -3 -15 3 -11 6 3 10 -2 11 -12 1 -10 7 0 15 22 l13 40 -2 -50 c-1 -34
-6 -49 -14 -47 -7 1 -13 -8 -13 -20 0 -12 -10 -32 -21 -44 -14 -15 -23 -40
-25 -71 -4 -53 1 -49 10 9 7 36 28 58 74 72 33 11 30 -31 -3 -46 -28 -12 -33
-28 -10 -28 8 0 15 -4 15 -9 0 -5 12 -24 27 -41 22 -27 28 -29 35 -16 6 11 17
14 32 10 14 -3 27 1 37 12 12 15 11 16 -21 10 l-35 -7 33 31 c18 17 37 28 43
25 17 -11 -15 49 -38 72 -21 21 -23 21 -23 3 0 -10 -13 -28 -30 -40 l-30 -21
6 33 c4 18 15 39 25 47 18 13 18 14 -6 33 -21 16 -28 18 -40 8 -11 -9 -15 -9
-15 -1 0 6 4 11 9 11 5 0 30 62 57 138 26 75 66 189 89 252 23 63 45 136 49
163 6 41 12 49 39 61 21 8 42 10 61 5 16 -5 68 -4 116 1 155 15 265 95 333
238 27 56 32 78 31 137 0 75 -19 146 -36 142 -6 -1 -15 12 -20 30 -12 45 -88
99 -88 63 0 -5 7 -10 15 -10 8 0 15 -4 15 -8 0 -13 -59 -43 -78 -41 -9 2 -39
-5 -65 -15 -41 -17 -51 -17 -75 -5 -15 7 -47 18 -71 24 -76 18 -139 124 -104
174 13 19 12 21 -5 21 -10 0 -27 -7 -38 -15 -10 -8 -27 -15 -37 -15 -10 0 -32
-7 -50 -16 -32 -17 -32 -17 -14 3 9 11 41 32 70 47 162 81 348 49 478 -84 l56
-58 28 52 c60 110 77 174 77 281 0 221 -104 400 -299 513 -92 54 -164 72 -285
72 l-97 0 -27 38 c-75 101 -137 150 -224 176 -85 25 -164 21 -235 -13z m-100
-398 c63 -20 124 -55 156 -90 l24 -27 -33 27 c-43 35 -55 34 -69 -3 -24 -62
-148 -78 -241 -31 -41 21 -79 72 -67 91 16 26 -97 -17 -165 -62 -36 -24 -41
-26 -25 -8 47 53 166 112 250 123 43 6 112 -2 170 -20z m466 -70 c59 -59 -10
-179 -181 -315 -43 -35 -93 -72 -112 -82 -43 -24 -30 -13 64 58 174 130 257
267 198 326 -21 21 -41 27 -105 34 -22 2 -5 3 37 2 65 -1 81 -5 99 -23z m-204
11 c-3 -3 -12 -4 -19 -1 -8 3 -5 6 6 6 11 1 17 -2 13 -5z m-127 -429 c0 -2
-10 -9 -22 -15 -22 -11 -22 -10 -4 4 21 17 26 19 26 11z m165 -15 c62 -21 141
-76 174 -121 l21 -28 -31 -46 c-42 -62 -66 -128 -75 -203 -3 -34 -8 -62 -11
-62 -33 0 -163 100 -163 126 0 6 -7 17 -15 24 -8 7 -22 37 -31 66 -15 52 -15
56 6 88 11 19 19 40 18 48 -2 7 4 13 12 13 8 1 26 8 40 17 14 9 39 20 55 24
l30 7 -40 18 c-22 10 -62 19 -89 19 -42 0 -47 2 -36 15 17 21 66 19 135 -5z
m-215 -15 c0 -2 -13 -11 -30 -20 -38 -19 -40 -11 -2 9 31 17 32 18 32 11z
m725 -315 c3 -5 2 -10 -4 -10 -5 0 -13 5 -16 10 -3 6 -2 10 4 10 5 0 13 -4 16
-10z m290 0 c-3 -5 -10 -10 -16 -10 -5 0 -9 5 -9 10 0 6 7 10 16 10 8 0 12 -4
9 -10z m-564 -435 l30 -24 -32 -17 c-36 -18 -49 -9 -49 39 0 33 14 34 51 2z
m49 -69 c0 -26 -5 -35 -22 -40 -34 -9 -36 -8 -48 13 -8 16 -4 23 23 40 43 28
47 27 47 -13z m-53 -158 c-3 -8 -6 -5 -6 6 -1 11 2 17 5 13 3 -3 4 -12 1 -19z
m-27 -9 c0 -6 -9 -45 -19 -87 -11 -43 -22 -101 -26 -130 -12 -94 -26 -42 -23
88 3 123 3 124 28 131 37 10 40 10 40 -2z m-104 -14 c4 -8 10 -12 15 -9 5 3 8
-56 7 -138 l-2 -143 -6 125 -6 125 -2 -146 c-1 -105 -6 -150 -15 -157 -10 -9
-20 26 -48 166 -26 125 -33 179 -25 184 20 14 76 9 82 -7z m121 -27 c-3 -7 -5
-2 -5 12 0 14 2 19 5 13 2 -7 2 -19 0 -25z m-10 -50 c-3 -7 -5 -2 -5 12 0 14
2 19 5 13 2 -7 2 -19 0 -25z m-10 -50 c-3 -7 -5 -2 -5 12 0 14 2 19 5 13 2 -7
2 -19 0 -25z m-10 -50 c-3 -7 -5 -2 -5 12 0 14 2 19 5 13 2 -7 2 -19 0 -25z
m-10 -40 c-3 -8 -6 -5 -6 6 -1 11 2 17 5 13 3 -3 4 -12 1 -19z m-10 -50 c-3
-7 -5 -2 -5 12 0 14 2 19 5 13 2 -7 2 -19 0 -25z m-10 -50 c-3 -7 -5 -2 -5 12
0 14 2 19 5 13 2 -7 2 -19 0 -25z m-10 -50 c-3 -7 -5 -2 -5 12 0 14 2 19 5 13
2 -7 2 -19 0 -25z m-60 -30 c-3 -7 -5 -2 -5 12 0 14 2 19 5 13 2 -7 2 -19 0
-25z m50 -10 c-3 -8 -6 -5 -6 6 -1 11 2 17 5 13 3 -3 4 -12 1 -19z m25 -63 c1
-13 -62 -48 -71 -40 -3 4 7 18 23 31 28 24 47 28 48 9z m88 -63 c0 -5 -18 -23
-40 -41 -45 -36 -54 -22 -13 21 26 27 53 37 53 20z m-96 -78 c2 -11 8 -19 14
-19 16 0 25 -12 13 -19 -11 -7 -51 40 -51 62 0 22 20 1 24 -24z"/>
<path d="M1155 4449 c-4 -6 -5 -12 -2 -15 2 -3 7 2 10 11 7 17 1 20 -8 4z"/>
<path d="M1725 4510 c4 -6 11 -8 16 -5 14 9 11 15 -7 15 -8 0 -12 -5 -9 -10z"/>
<path d="M1820 4446 c0 -11 9 -16 26 -16 31 0 28 23 -4 28 -15 2 -22 -2 -22
-12z"/>
<path d="M1290 2908 c0 -15 -4 -30 -10 -33 -15 -9 -12 -25 3 -19 7 2 30 -2 50
-11 42 -18 127 -20 127 -4 0 7 -10 9 -24 5 -14 -3 -48 -1 -75 5 -42 9 -51 14
-51 32 0 12 -5 29 -10 37 -8 12 -10 9 -10 -12z"/>
<path d="M1504 2885 c11 -8 39 -13 72 -13 29 1 57 -1 60 -5 4 -4 -5 -7 -19 -7
-26 0 -36 -13 -18 -24 5 -4 11 0 14 6 8 22 40 -5 69 -58 33 -58 37 -51 6 9
-12 23 -21 49 -20 57 3 19 -49 43 -73 34 -13 -5 -16 -4 -11 4 4 7 3 12 -3 12
-5 0 -12 -4 -16 -10 -4 -6 -15 -6 -31 0 -37 14 -52 12 -30 -5z"/>
<path d="M1690 2880 c8 -5 20 -10 25 -10 6 0 3 5 -5 10 -8 5 -19 10 -25 10 -5
0 -3 -5 5 -10z"/>
<path d="M1477 2860 c-3 -13 0 -20 10 -20 8 0 11 5 8 10 -3 6 -1 10 5 10 6 0
8 5 5 10 -10 16 -22 12 -28 -10z"/>
<path d="M1530 2856 c0 -2 11 -6 25 -8 13 -3 22 -1 19 3 -5 9 -44 13 -44 5z"/>
<path d="M1261 2824 c0 -11 3 -14 6 -6 3 7 2 16 -1 19 -3 4 -6 -2 -5 -13z"/>
<path d="M1340 2810 c0 -4 10 -12 23 -18 12 -6 17 -11 10 -11 -16 -1 -5 -36
18 -57 27 -24 24 -32 -16 -40 -27 -5 -33 -9 -25 -19 12 -15 3 -25 -24 -25 -20
0 -20 -1 4 -20 l25 -20 -24 0 c-34 0 -21 -9 36 -25 l48 -13 -50 -1 c-46 -2
-49 -3 -31 -16 19 -14 18 -15 -10 -15 l-29 0 25 -20 25 -20 -40 -1 -40 -1 30
-13 c17 -8 44 -14 60 -15 25 0 27 -2 13 -11 -12 -7 -35 -5 -74 5 -31 8 -58 17
-60 19 -3 2 -12 29 -20 59 -16 54 -16 56 12 114 15 32 29 80 31 108 l3 51 -13
-50 c-13 -50 -53 -160 -64 -178 -3 -6 -12 -2 -19 7 -7 10 -15 17 -18 17 -15
-1 -35 12 -31 19 3 5 -9 26 -26 47 -18 23 -12 18 17 -12 l47 -50 -29 53 c-46
85 -99 112 -218 112 -119 0 -197 -49 -249 -157 -12 -24 -25 -43 -29 -43 -7 0
-68 -112 -68 -124 0 -3 11 6 25 19 13 14 31 25 40 25 19 0 19 -7 -1 -27 -15
-16 -15 -30 1 -96 6 -22 3 -27 -19 -33 -14 -3 -31 -13 -38 -22 -11 -13 -14 -9
-19 29 -4 27 -7 -4 -8 -81 -1 -89 -5 -133 -16 -154 -20 -38 -19 -47 2 -16 32
48 76 89 103 95 16 3 36 15 46 26 24 27 31 24 38 -14 6 -32 31 -62 66 -83 8
-4 -2 12 -23 36 -20 24 -37 54 -37 68 l0 24 35 -31 c112 -98 333 -64 412 65
11 17 12 16 12 -14 1 -39 -31 -107 -54 -116 -23 -8 -27 -8 -20 4 8 13 8 13
-72 -6 -47 -11 -89 -14 -136 -10 -49 5 -66 3 -61 -5 4 -8 0 -9 -15 -4 -34 11
-24 -11 14 -29 19 -9 35 -19 35 -21 0 -8 -71 18 -144 53 -5 3 -6 -4 -2 -14 5
-14 -2 -10 -25 11 l-32 30 6 -32 c6 -32 -3 -37 -31 -19 -10 6 -11 1 -7 -18 3
-14 8 -38 11 -53 l6 -28 -26 24 -26 25 6 -50 7 -49 -23 20 -23 20 7 -20 c4
-11 10 -36 13 -55 6 -34 6 -35 -14 -17 -29 25 -36 21 -18 -13 19 -38 19 -40
-6 -40 -19 0 -18 -4 15 -40 41 -46 45 -57 13 -36 -12 8 -40 22 -62 31 l-40 17
29 -31 c34 -35 29 -50 -11 -32 l-28 13 20 -23 c11 -13 27 -29 35 -36 13 -11
12 -12 -8 -13 -33 0 -88 25 -100 46 -13 23 -17 18 -25 -21 -5 -27 -1 -33 38
-58 51 -32 107 -57 132 -57 10 0 27 -7 37 -15 19 -14 18 -17 -12 -94 -18 -44
-38 -105 -46 -136 -18 -66 -23 -75 -42 -75 -13 0 -13 3 0 22 9 12 16 37 16 54
0 17 7 47 15 66 11 27 12 43 3 71 -9 30 -8 39 11 66 l22 31 -31 0 c-17 0 -47
7 -67 15 -48 20 -50 19 -22 -11 21 -22 21 -24 4 -18 -20 7 -20 7 0 -16 l20
-23 -27 5 c-29 5 -39 -8 -13 -18 8 -4 12 -10 9 -15 -3 -5 10 -16 28 -24 l33
-14 -49 -1 c-40 0 -47 -2 -37 -14 9 -11 9 -15 -1 -18 -10 -4 -8 -11 5 -31 22
-34 22 -35 -10 -29 -25 5 -27 4 -14 -11 12 -15 11 -17 -9 -17 -23 0 -23 0 -5
-21 19 -20 19 -20 -9 -10 -33 13 -36 13 -36 2 0 -5 18 -16 40 -25 46 -18 56
-43 45 -114 -12 -78 -9 -102 13 -125 12 -11 25 -17 29 -13 4 4 0 12 -10 17
-26 15 -21 30 6 20 18 -7 26 -5 35 10 7 10 17 19 23 19 6 0 25 11 43 25 18 14
38 25 44 25 13 0 19 -46 27 -200 3 -63 10 -133 15 -155 7 -30 8 -16 4 55 -4
68 -2 91 5 80 14 -19 14 -18 -4 65 -18 87 -20 169 -3 159 8 -5 9 -2 2 12 -5
10 -9 44 -10 74 -3 73 -5 80 -14 50 -7 -22 -8 -20 -9 15 0 22 3 46 7 53 17 25
34 -71 34 -187 -1 -64 6 -158 15 -210 12 -73 13 -95 4 -101 -13 -8 -8 -77 10
-136 9 -30 44 -53 104 -68 11 -3 -3 -4 -32 -2 -38 2 -50 0 -46 -10 2 -7 10
-11 17 -8 8 3 16 -29 25 -113 10 -87 11 -118 2 -121 -6 -2 -11 -16 -10 -30 0
-26 1 -26 9 -5 15 37 22 26 19 -31 -2 -40 2 -60 17 -78 22 -30 84 -46 84 -23
0 8 9 15 20 15 11 0 20 -4 20 -10 0 -5 7 -10 15 -10 8 0 15 6 15 13 0 7 9 21
21 30 11 10 18 21 15 24 -3 4 -14 -1 -23 -10 -10 -8 -34 -18 -55 -22 -30 -6
-38 -4 -47 13 -16 30 -13 74 5 101 14 19 14 25 3 32 -9 6 6 9 43 9 76 0 88
-13 86 -92 -1 -41 -7 -67 -20 -84 -19 -23 -19 -23 11 -38 16 -9 44 -15 63 -14
19 1 40 -2 46 -5 5 -4 21 -3 34 2 22 9 21 10 -9 10 -50 1 -63 10 -63 43 0 35
16 68 43 87 19 14 19 15 2 28 -11 7 -16 13 -12 13 18 0 84 -33 106 -53 l25
-22 -16 25 c-8 14 -34 34 -57 45 -22 11 -41 23 -41 28 0 14 65 47 95 47 26 0
33 6 54 50 13 28 28 50 32 50 5 0 9 4 9 9 0 5 -24 12 -54 15 -30 4 -60 14 -67
22 -11 13 -8 14 17 8 l29 -7 -25 22 -25 21 28 -10 c35 -12 67 -13 67 -1 0 5
-10 11 -22 15 -13 3 -36 17 -53 31 -21 18 -23 23 -8 16 35 -18 47 -13 22 9
-27 22 -22 25 15 10 31 -11 33 -4 6 24 -10 12 -26 39 -35 61 l-17 40 32 -37
c40 -48 59 -49 30 -3 -27 44 -21 64 17 58 26 -4 26 -3 8 8 -30 17 -65 51 -65
62 0 5 15 -1 34 -12 45 -28 52 -26 27 5 -28 36 -26 44 11 44 l31 0 -22 24
c-29 31 -21 44 32 53 l42 7 -50 12 c-34 8 -42 12 -24 13 15 0 39 7 54 15 l27
14 -43 10 -44 10 53 1 c52 1 98 -15 134 -46 15 -14 18 -13 24 11 8 32 -6 51
-60 78 -26 13 -60 21 -93 21 -47 0 -51 1 -35 14 15 12 14 13 -13 7 -16 -3 -35
-7 -42 -9 -9 -3 -10 2 -1 20 6 14 26 30 47 37 22 7 30 13 20 15 -9 2 -41 -5
-70 -16 l-54 -20 44 39 c41 38 42 40 18 40 -14 0 -33 3 -43 7 -14 5 -12 11 17
35 l34 30 -50 -6 c-30 -4 -45 -2 -36 3 7 5 11 13 7 19 -3 6 2 16 11 22 15 10
14 10 -9 6 -14 -3 -34 -9 -45 -12 -25 -9 19 23 66 48 l36 19 -40 -6 c-22 -3
-54 -8 -71 -11 -37 -7 -123 14 -105 26 9 5 2 12 -21 21 l-33 13 40 4 39 3 -39
18 -40 17 35 8 35 7 -35 16 -35 17 45 6 c45 6 45 6 15 15 l-30 9 30 6 30 6
-45 16 -45 16 61 -5 c41 -4 68 -1 85 8 23 13 22 14 -31 19 l-55 5 60 14 c33 7
75 19 93 27 62 27 142 12 142 -26 0 -12 -4 -18 -10 -15 -7 4 -8 -3 -4 -22 9
-37 14 -42 14 -12 0 35 13 51 35 43 16 -6 17 -16 12 -97 -6 -94 -12 -111 -28
-87 -8 11 -12 12 -16 2 -3 -9 -12 -7 -30 8 -14 11 -32 20 -39 20 -17 0 -177
-80 -171 -86 2 -3 41 10 85 27 52 20 87 29 99 24 16 -6 14 -9 -12 -21 l-30
-13 33 -1 c55 0 89 -25 122 -88 16 -31 36 -68 44 -82 8 -14 18 -38 22 -55 5
-21 8 -25 11 -12 3 9 9 14 15 11 6 -4 8 1 3 15 -7 24 27 67 44 56 7 -3 10 -3
9 2 -1 4 3 23 10 41 9 27 16 32 31 27 11 -3 22 -1 26 5 4 6 -4 10 -17 10 -21
0 -24 4 -20 34 3 28 9 35 35 42 l32 7 -27 4 c-20 3 -28 12 -33 33 -5 24 -1 34
22 55 15 13 23 25 16 25 -6 0 -15 -4 -18 -10 -22 -35 -67 29 -51 73 6 16 15
26 23 23 17 -7 16 -1 -2 14 -12 10 -16 8 -25 -14 -11 -30 -17 -32 -48 -8 -18
14 -21 23 -16 50 l6 32 32 -21 31 -21 -31 29 c-32 29 -92 66 -109 67 -5 1 -13
15 -16 31 -5 24 -7 26 -8 7 -1 -18 -6 -23 -23 -20 -16 2 -24 12 -29 36 -10 47
-23 55 -15 8 l7 -39 -32 7 c-17 3 -37 6 -44 6 -8 0 -15 23 -18 60 -4 33 -13
73 -21 89 -11 21 -12 31 -3 40 8 8 7 11 -6 11 -15 0 -14 3 4 21 25 25 19 35
-10 19 -26 -14 -26 -5 0 44 18 35 25 84 18 136 -1 8 -1 38 -1 67 2 64 24 76
78 42 20 -12 69 -32 109 -44 l73 -23 13 67 c6 36 13 104 14 151 1 47 5 114 9
150 4 36 3 70 -1 76 -8 12 -143 25 -143 14z m-325 -84 c40 -17 48 -30 9 -16
-37 14 -49 13 -34 -5 6 -8 9 -18 6 -23 -3 -5 13 -15 35 -21 23 -7 39 -14 36
-17 -2 -2 -16 0 -31 6 -47 17 -146 11 -219 -14 l-69 -23 4 28 c6 36 -1 36 -34
2 -36 -38 -65 -115 -37 -97 7 4 7 -2 -1 -17 -21 -39 -23 -37 -18 18 8 89 67
153 168 184 43 13 149 10 185 -5z m80 -179 c8 -13 17 -37 21 -54 5 -26 3 -31
-18 -36 -12 -4 -28 -7 -35 -7 -12 0 -45 98 -37 112 11 17 54 7 69 -15z m104
-9 c5 -13 6 -27 3 -32 -6 -10 -20 19 -21 42 -1 20 9 14 18 -10z m-417 -58 c3
-20 0 -30 -8 -30 -7 0 -19 -3 -28 -6 -12 -5 -16 1 -16 24 0 28 6 34 41 41 4 0
9 -12 11 -29z m-132 -50 c0 -16 -4 -30 -10 -30 -5 0 -10 14 -10 30 0 17 5 30
10 30 6 0 10 -13 10 -30z m477 4 c-10 -10 -77 -22 -77 -14 0 5 6 11 13 13 17
8 72 8 64 1z m-347 -14 c-20 -13 -53 -13 -45 0 3 6 18 10 33 10 21 0 24 -2 12
-10z m335 -20 c-3 -5 -21 -10 -38 -9 -27 0 -29 2 -12 9 28 12 57 12 50 0z
m-316 -4 c-12 -10 -60 -16 -54 -6 3 5 18 10 32 10 15 0 24 -2 22 -4z m320 -20
c-2 -2 -20 -6 -39 -10 -25 -4 -31 -3 -20 4 14 9 69 15 59 6z m-449 -56 c0 -5
-18 -14 -40 -20 -47 -13 -60 -33 -60 -94 0 -25 -4 -48 -10 -51 -6 -4 -10 18
-10 58 0 72 14 93 72 107 46 11 48 11 48 0z m491 -28 c-11 -21 -89 -92 -101
-92 -4 0 -7 7 -7 15 0 8 20 26 43 40 24 14 49 35 55 46 6 11 13 18 16 16 2 -3
0 -14 -6 -25z m-61 -17 c0 -8 -82 -45 -100 -44 -8 0 10 10 40 23 30 13 56 24
58 25 1 0 2 -1 2 -4z m-239 -75 c15 0 30 -7 33 -16 5 -13 1 -14 -27 -9 -31 7
-107 42 -107 49 0 2 17 -2 38 -10 20 -7 49 -13 63 -14z m107 23 c-10 -2 -26
-2 -35 0 -10 3 -2 5 17 5 19 0 27 -2 18 -5z m120 -170 c-27 -2 -69 -2 -95 0
-27 2 -5 3 47 3 52 0 74 -1 48 -3z m-115 -50 c-13 -2 -35 -2 -50 0 -16 2 -5 4
22 4 28 0 40 -2 28 -4z m-96 -9 c-3 -3 -12 -4 -19 -1 -8 3 -5 6 6 6 11 1 17
-2 13 -5z m298 -12 c-3 -3 -11 0 -18 7 -9 10 -8 11 6 5 10 -3 15 -9 12 -12z
m20 -73 c10 -68 2 -71 -11 -4 -5 30 -7 55 -3 55 4 0 10 -23 14 -51z m35 -59
c0 -16 -4 -30 -10 -30 -5 0 -10 14 -10 30 0 17 5 30 10 30 6 0 10 -13 10 -30z
m70 -10 c0 -25 -4 -30 -24 -30 -19 0 -25 6 -28 30 -4 27 -2 30 24 30 24 0 28
-4 28 -30z m48 14 c16 -5 22 -14 22 -35 0 -34 -9 -41 -35 -26 -12 7 -20 23
-20 40 -1 29 -1 30 33 21z m74 -33 c23 -12 27 -19 21 -40 -8 -34 -7 -33 -36
-20 -20 9 -25 18 -24 45 1 19 3 33 6 31 4 -1 18 -9 33 -16z m-32 -187 c0 -99
-10 -134 -37 -134 -15 0 -15 2 0 18 13 15 17 39 17 115 0 58 4 97 10 97 6 0
10 -39 10 -96z m-558 -83 c44 -19 78 -51 118 -111 l24 -35 -25 21 c-35 31 -54
40 -44 23 4 -8 13 -21 20 -29 20 -25 57 -90 52 -90 -3 0 -22 24 -43 53 -106
148 -164 176 -279 131 l-20 -7 20 22 c39 45 106 53 177 22z m29 -149 c80 -83
92 -126 87 -297 -2 -74 -1 -129 3 -124 10 16 21 -106 13 -147 -5 -27 -4 -35 5
-30 7 5 11 -7 11 -38 0 -36 -5 -48 -22 -60 -41 -25 -85 -29 -140 -10 l-53 17
32 11 c45 15 51 26 17 26 -17 0 -39 7 -50 15 -18 13 -17 14 19 15 44 0 48 12
10 27 l-28 11 25 1 25 2 -27 15 c-31 16 -37 41 -13 50 8 4 15 10 15 15 0 5
-11 4 -25 -1 -14 -5 -25 -7 -25 -5 0 3 19 26 41 50 41 44 42 60 3 30 -22 -17
-44 -19 -44 -5 0 6 9 10 20 10 22 0 27 15 8 23 -7 3 -3 6 10 6 27 1 29 17 3
26 -22 7 -85 74 -77 82 3 3 17 -4 32 -16 15 -11 37 -21 51 -21 23 0 22 1 -12
31 -39 34 -47 56 -14 39 26 -14 35 -7 14 10 -20 17 -19 31 3 24 9 -3 1 8 -18
25 l-34 31 44 0 c33 0 41 3 30 10 -12 8 -12 10 5 10 11 1 -4 10 -32 21 -67 26
-70 44 -5 36 43 -6 45 -5 28 8 -23 17 -5 20 25 5 11 -6 19 -7 19 -2 0 13 -43
41 -88 57 -23 8 -29 14 -17 14 11 0 37 -6 58 -13 46 -17 50 -3 11 43 -46 55
-3 34 57 -27z m231 -263 c21 -17 37 -34 34 -36 -3 -3 -19 6 -36 20 -42 36 -65
41 -97 21 l-28 -16 25 21 c34 28 55 26 102 -10z m61 -116 c-3 -27 -16 -84 -28
-128 -34 -119 -42 -218 -20 -253 l17 -27 -31 30 -31 30 11 65 c5 35 21 98 34
139 13 42 29 102 35 134 14 69 22 75 13 10z m-190 -465 c3 -46 9 -92 13 -102
6 -16 4 -18 -12 -11 -10 5 -43 11 -71 13 -43 3 -53 7 -53 22 0 10 7 23 15 30
9 7 13 15 10 18 -3 3 9 11 27 16 31 11 33 14 36 66 6 121 26 91 35 -52z m-53
88 c0 -25 -21 -36 -72 -36 -21 0 -25 4 -21 20 3 11 17 23 32 26 14 3 31 7 36
9 21 7 25 4 25 -19z m174 -38 c-22 -71 -67 -188 -71 -184 -4 4 27 101 57 182
12 30 24 32 14 2z m-164 -23 c0 -17 -6 -21 -52 -29 -33 -6 -38 -4 -38 12 0 13
11 21 38 28 41 11 52 9 52 -11z m333 -24 c4 -4 1 -15 -5 -24 -19 -24 -98 -4
-98 25 0 17 5 19 48 12 26 -3 50 -9 55 -13z m-50 -48 c29 -6 32 -10 18 -32
-10 -15 -76 -8 -87 10 -11 18 5 42 24 34 9 -3 29 -9 45 -12z"/>
<path d="M1510 2779 c0 -4 6 -9 13 -12 8 -3 14 0 14 7 0 7 -6 13 -14 13 -7 0
-13 -4 -13 -8z"/>
<path d="M1300 2345 c20 -21 21 -25 6 -25 -14 0 -12 -7 13 -37 43 -52 39 -61
-9 -23 -37 30 -55 30 -27 1 10 -11 8 -11 -11 -1 -30 15 -37 8 -22 -21 11 -19
10 -21 -4 -16 -17 7 -22 -8 -6 -18 6 -4 24 -34 41 -67 29 -57 29 -59 7 -44
-37 26 -38 19 -7 -43 16 -33 30 -66 30 -73 2 -20 19 60 26 119 4 36 9 50 18
47 8 -3 24 22 44 70 42 101 41 113 -11 126 -24 6 -56 15 -72 20 -41 14 -42 13
-16 -15z"/>
<path d="M1356 2074 c-4 -9 -4 -19 -1 -22 2 -3 7 3 11 12 4 9 4 19 1 22 -2 3
-7 -3 -11 -12z"/>
<path d="M479 1998 c-32 -84 -32 -85 -20 -68 15 20 53 122 48 127 -2 2 -15
-25 -28 -59z"/>
<path d="M321 1294 c0 -11 3 -14 6 -6 3 7 2 16 -1 19 -3 4 -6 -2 -5 -13z"/>
<path d="M311 1254 c0 -11 3 -14 6 -6 3 7 2 16 -1 19 -3 4 -6 -2 -5 -13z"/>
<path d="M1410 900 c-6 -11 -8 -20 -6 -20 3 0 10 9 16 20 6 11 8 20 6 20 -3 0
-10 -9 -16 -20z"/>
<path d="M722 580 c0 -19 2 -27 5 -17 2 9 2 25 0 35 -3 9 -5 1 -5 -18z"/>
<path d="M733 500 c0 -25 2 -35 4 -22 2 12 2 32 0 45 -2 12 -4 2 -4 -23z"/>
</g>
</svg>
