
<svg version="1.0" xmlns="http://www.w3.org/2000/svg"
 width="422.000000pt" height="655.000000pt" viewBox="0 0 422.000000 655.000000"
 preserveAspectRatio="xMidYMid meet">

<g transform="translate(0.000000,655.000000) scale(0.100000,-0.100000)"
fill="#000000" stroke="none">
<path d="M1525 5753 c-87 -19 -94 -23 -104 -61 -5 -20 -12 -62 -16 -92 -3 -30
-11 -60 -17 -67 -8 -10 -53 -13 -169 -13 -94 0 -168 -4 -182 -11 -27 -12 -29
-25 -42 -354 -4 -77 -12 -203 -20 -280 -25 -255 -27 -309 -13 -326 7 -9 44
-24 81 -34 94 -24 103 -35 116 -130 7 -49 22 -103 41 -140 24 -50 39 -67 94
-103 77 -50 129 -62 270 -61 135 0 95 14 -64 22 -109 5 -127 9 -141 26 -35 43
7 222 69 291 l38 43 99 8 c55 4 129 15 165 25 45 11 83 14 126 10 41 -4 72 -2
89 6 23 10 28 10 37 -6 6 -10 19 -27 29 -37 19 -19 18 -19 -7 -19 -21 0 -24
-4 -19 -20 5 -16 2 -20 -15 -20 -21 0 -22 -1 -6 -25 21 -31 21 -32 -9 -39 -26
-7 -34 -31 -13 -38 7 -3 -14 -14 -47 -25 -33 -12 -68 -24 -77 -28 -16 -7 -16
-3 1 47 10 29 24 65 31 81 19 39 5 45 -30 12 -24 -23 -30 -25 -30 -12 0 25
-20 20 -60 -14 -31 -26 -35 -27 -41 -12 -5 15 -10 10 -27 -22 -44 -84 -55
-111 -60 -152 -5 -50 4 -56 80 -57 36 -1 47 -4 43 -14 -3 -8 -5 -16 -5 -18 0
-2 -10 -4 -22 -4 -22 -1 -22 -1 -5 -15 14 -10 17 -21 13 -42 -3 -15 -10 -80
-15 -144 -5 -63 -12 -128 -15 -145 l-6 -29 12 32 c19 47 25 49 41 11 24 -57
60 -78 136 -79 100 -1 112 -10 54 -39 l-48 -24 48 -7 c27 -4 51 -10 54 -12 2
-3 -22 -10 -54 -17 -32 -6 -69 -15 -83 -19 -25 -8 -21 -9 115 -24 11 -2 -14
-11 -55 -22 l-75 -19 40 -7 c58 -11 145 -11 184 1 40 11 39 12 46 -26 6 -28 3
-30 -94 -78 l-100 -48 -63 11 c-35 6 -74 14 -88 18 -22 6 -21 2 18 -40 23 -26
42 -49 42 -51 0 -3 -22 -2 -50 1 -55 6 -58 4 -34 -32 16 -24 16 -25 -10 -25
l-27 0 25 -42 c13 -24 27 -53 30 -65 7 -20 5 -22 -30 -16 l-38 6 24 -38 24
-38 -27 7 c-29 7 -35 -2 -15 -22 19 -19 4 -14 -43 13 -24 14 -53 25 -63 25
-18 0 -17 -3 6 -27 31 -34 110 -155 104 -160 -2 -3 -28 11 -58 31 -57 39 -81
46 -71 20 5 -15 3 -15 -25 0 -17 9 -36 16 -41 16 -6 0 18 -38 54 -85 35 -47
77 -108 92 -135 15 -28 31 -50 35 -50 4 0 31 9 60 20 29 11 54 20 56 20 1 0 2
-11 2 -24 0 -18 -8 -27 -32 -35 -28 -10 -123 -75 -156 -108 -22 -22 -57 -15
-103 20 -187 143 -258 175 -432 197 -136 17 -132 18 -143 -44 l-10 -54 90 -7
c50 -3 116 -13 146 -21 58 -16 324 -150 374 -188 l30 -23 20 37 c51 92 67 109
132 140 75 35 110 30 117 -17 2 -15 2 8 -1 52 -7 105 -4 169 9 219 6 23 22
101 34 173 34 196 89 299 191 359 41 24 83 27 70 5 -3 -5 5 -39 19 -75 14 -37
25 -70 25 -75 0 -4 -18 -14 -40 -21 -22 -7 -40 -16 -40 -19 1 -3 19 -15 42
-26 54 -26 58 -42 15 -60 -37 -15 -97 -62 -97 -75 0 -7 14 -11 108 -25 l43 -7
-20 -31 c-11 -17 -43 -47 -72 -66 -76 -51 -74 -60 13 -63 l73 -3 -37 -19 c-21
-11 -38 -23 -38 -27 0 -8 37 -19 68 -19 12 0 22 -4 22 -10 0 -5 -4 -10 -10
-10 -5 0 -10 -6 -10 -13 0 -6 -20 -23 -44 -35 -24 -13 -55 -35 -68 -49 -21
-24 -21 -25 -3 -20 80 22 225 49 305 56 88 8 96 7 113 -11 44 -50 29 -127 -34
-181 -22 -19 -99 -65 -172 -101 -134 -67 -204 -88 -348 -102 l-56 -5 34 -34
c18 -18 33 -40 33 -49 0 -13 12 -16 63 -16 167 1 373 87 492 206 20 19 40 32
45 29 6 -4 6 3 0 20 -15 40 -12 130 5 145 15 12 55 5 55 -11 0 -5 7 -9 15 -9
9 0 -1 15 -24 35 -22 20 -59 63 -83 96 -23 33 -60 84 -81 112 -57 77 -140 213
-187 307 -102 202 -201 606 -160 655 20 25 30 17 30 -22 0 -98 60 -351 116
-495 53 -135 126 -277 184 -354 79 -105 218 -233 325 -298 30 -18 30 -18 10 2
-11 10 -47 43 -80 73 -133 117 -255 279 -310 409 -65 154 -130 371 -164 553
-23 119 -26 157 -11 157 11 0 20 -33 55 -200 91 -430 335 -826 595 -965 71
-38 80 -40 160 -40 68 0 93 5 125 22 83 44 145 134 161 231 6 41 7 42 21 22
28 -39 -6 -130 -75 -204 l-37 -39 30 7 c57 14 139 99 160 166 5 17 65 50 89
50 7 0 28 15 47 33 19 17 46 37 61 44 30 14 48 61 48 130 l0 42 -52 -3 c-29
-2 -65 -8 -80 -14 -16 -7 -41 -9 -57 -6 -16 4 -32 1 -35 -5 -4 -6 -24 -11 -45
-11 -20 0 -42 -5 -48 -11 -21 -21 -40 -2 -45 46 -3 25 -14 55 -24 67 -19 20
-18 21 29 63 27 23 73 55 103 70 51 26 61 27 140 22 49 -4 84 -2 84 3 0 16
-51 25 -130 24 -81 0 -110 -11 -191 -70 l-46 -33 -21 22 c-12 13 -22 28 -22
35 0 6 -9 26 -19 44 -11 18 -23 58 -26 88 -12 106 -15 116 -64 174 -59 69 -69
106 -42 150 26 42 94 106 159 150 51 34 163 76 203 76 26 0 24 7 -11 47 -16
18 -30 39 -30 45 0 15 -56 5 -127 -24 -100 -41 -198 -112 -245 -178 -23 -33
-46 -60 -52 -60 -5 0 -28 20 -50 45 -92 102 -266 278 -271 274 -9 -10 104
-155 154 -197 45 -38 51 -48 51 -82 0 -21 -11 -74 -25 -117 -35 -112 -55 -239
-54 -346 1 -90 0 -97 -45 -200 -26 -59 -52 -136 -57 -170 -11 -72 -27 -117
-41 -117 -6 0 -8 12 -4 28 3 15 10 50 16 77 5 28 14 65 19 84 6 19 8 38 5 42
-7 13 -88 46 -165 69 -63 19 -92 41 -75 57 12 12 123 -18 189 -51 l68 -35 25
57 c46 102 45 98 18 125 -52 52 -171 92 -305 103 l-77 7 -11 43 c-15 58 -14
62 9 69 28 9 25 25 -4 25 -34 0 -42 28 -11 36 30 7 31 12 8 30 -16 12 -15 14
14 20 39 8 34 24 -8 24 -16 0 -29 3 -29 8 0 4 27 24 60 44 69 43 102 98 144
243 30 102 32 145 11 205 -8 23 -15 57 -15 74 0 27 6 35 37 50 28 13 34 20 22
26 -11 8 -6 16 24 40 46 39 47 51 5 43 -33 -6 -32 -6 21 43 30 27 69 61 88 76
19 15 43 38 54 52 17 21 29 26 67 26 59 0 97 -23 153 -92 24 -30 63 -66 86
-80 23 -15 65 -58 94 -98 63 -86 213 -207 197 -158 -3 7 -31 33 -64 58 -32 26
-75 68 -94 95 -39 55 -105 125 -134 140 -17 10 -18 21 -8 221 5 116 14 220 20
230 6 10 25 24 44 30 29 10 31 13 13 19 -11 4 -70 35 -132 69 -88 48 -113 66
-113 82 0 12 -14 39 -31 60 -17 22 -39 55 -49 74 -20 39 -138 156 -147 146 -3
-3 1 -14 10 -24 35 -38 15 -33 -29 8 -25 23 -48 39 -52 36 -3 -4 0 -12 6 -18
26 -26 10 -27 -23 -2 -20 15 -38 25 -40 22 -2 -2 13 -29 35 -59 22 -29 40 -57
40 -61 0 -5 -21 8 -46 27 -26 20 -61 43 -78 52 l-31 15 36 -38 c19 -22 42 -48
50 -58 16 -22 17 -23 -60 26 -71 45 -77 33 -14 -28 32 -31 45 -47 29 -35 -41
30 -125 68 -179 82 -29 7 -90 10 -160 7 -94 -4 -123 -9 -177 -33 -36 -15 -78
-36 -93 -47 -16 -11 -31 -18 -34 -15 -12 12 53 105 117 167 l66 65 -100 -5
c-112 -6 -113 -6 -115 -95 -2 -50 -11 -85 -22 -85 -5 0 -6 34 -2 75 l6 75 -34
0 c-72 0 -112 28 -46 32 17 1 -11 4 -63 7 -82 5 -95 8 -98 25 -7 33 9 104 23
110 8 3 88 -3 177 -14 228 -27 236 -23 21 10 -206 32 -216 34 -189 46 11 4
130 -8 285 -30 146 -20 278 -36 293 -36 37 0 45 -17 14 -32 -27 -12 -37 -34
-12 -25 8 3 42 11 76 18 34 6 58 15 53 18 -5 3 -14 18 -20 32 -11 25 -16 27
-100 32 -48 2 -180 18 -293 35 -229 34 -296 41 -325 35z m-51 -90 c-9 -109
-15 -143 -26 -143 -10 0 -3 174 9 192 13 23 21 1 17 -49z m351 -272 c-12 -49
-22 -1 -11 57 l11 57 3 -44 c2 -25 0 -56 -3 -70z m-471 71 c0 -12 -1 -61 -2
-109 -1 -47 -5 -83 -8 -80 -4 4 -14 44 -23 89 l-17 83 -102 3 c-81 2 -102 6
-102 17 0 11 23 15 113 18 149 4 142 5 141 -21z m-284 -4 c0 -13 -9 -176 -20
-363 -26 -451 -26 -462 3 -470 12 -3 55 -18 95 -32 l72 -25 0 -39 c0 -38 -1
-39 -27 -33 -16 4 -68 21 -118 39 l-90 32 2 94 c2 109 43 788 49 807 6 22 34
13 34 -10z m538 -110 c7 -7 12 -21 12 -31 0 -18 -1 -17 -18 3 -16 19 -22 21
-40 11 -12 -6 -22 -8 -22 -3 0 13 23 32 40 32 9 0 21 -5 28 -12z m742 -29 c41
-20 96 -55 122 -78 l48 -42 -6 -57 c-8 -70 8 -131 48 -195 28 -44 29 -50 17
-79 -34 -82 -135 -202 -205 -244 -53 -31 -129 -54 -179 -53 -37 0 -33 2 36 22
41 13 96 35 120 49 65 38 150 127 186 193 l30 57 -35 69 c-33 64 -36 76 -35
155 l0 85 -74 49 c-94 63 -152 80 -272 80 -110 0 -200 -22 -288 -69 -65 -35
-80 -34 -31 2 93 70 191 97 338 94 98 -2 110 -5 180 -38z m-125 -18 c14 -6 5
-10 -35 -15 -30 -4 -78 -14 -106 -22 l-52 -15 5 -38 c3 -24 -1 -49 -11 -70
-28 -54 -149 -131 -206 -131 -29 0 -30 -1 -30 -49 0 -48 29 -158 57 -216 l14
-30 -22 25 c-62 71 -97 207 -81 315 15 96 38 134 99 171 104 62 299 102 368
75z m505 -146 c23 -50 16 -78 -19 -88 -15 -4 -22 2 -30 26 -34 95 9 149 49 62z
m-84 -35 c1 -51 -2 -70 -12 -70 -14 0 -19 14 -29 77 -5 34 -3 43 12 52 10 6
20 11 23 11 3 0 6 -32 6 -70z m-989 -80 c17 -10 36 -28 42 -39 12 -21 4 -54
-10 -45 -5 3 -9 0 -9 -7 0 -7 -7 -4 -15 7 -14 18 -14 18 -15 -8 0 -31 -7 -34
-34 -13 -14 10 -24 11 -38 4 -24 -13 -37 -4 -31 20 4 17 0 19 -32 17 l-36 -3
33 34 c28 29 68 49 103 52 6 1 24 -8 42 -19z m1250 5 c33 -23 40 -67 32 -210
-10 -163 -18 -220 -30 -208 -5 5 -3 71 7 166 9 86 14 168 10 181 -3 13 -20 38
-37 55 -32 32 -20 43 18 16z m-782 -95 c-5 -8 -11 -8 -17 -2 -6 6 -7 16 -3 22
5 8 11 8 17 2 6 -6 7 -16 3 -22z m-495 -122 c0 -38 -36 -39 -50 -2 -13 32 -13
30 7 49 16 16 17 16 30 -1 7 -10 13 -30 13 -46z m360 -58 c0 -5 -4 -10 -10
-10 -5 0 -10 5 -10 10 0 6 5 10 10 10 6 0 10 -4 10 -10z m570 -35 c-14 -36 -9
-40 23 -14 27 20 38 14 15 -9 -25 -25 4 -23 38 3 34 26 36 26 29 6 -7 -23 4
-28 24 -8 11 10 12 9 7 -1 -5 -7 -46 -38 -93 -68 -47 -30 -83 -58 -79 -61 3
-3 46 14 96 39 56 28 90 40 90 32 0 -21 -98 -121 -130 -133 -35 -12 -36 -9
-14 24 20 31 11 31 -60 0 -31 -14 -56 -22 -56 -19 0 3 7 18 15 34 9 17 14 30
11 30 -2 0 -51 -15 -108 -34 -130 -43 -276 -63 -333 -44 -27 9 -44 22 -53 41
-18 38 -11 42 29 18 100 -58 275 -44 389 32 59 39 116 94 142 135 24 39 33 37
18 -3z m-1320 -290 c23 -8 53 -15 66 -15 l23 0 -24 -42 c-13 -24 -29 -76 -36
-115 -11 -68 -24 -90 -34 -60 -40 128 -62 247 -46 247 5 0 28 -7 51 -15z
m1140 -150 c6 -17 7 -44 1 -73 -8 -44 -9 -45 -10 -12 -2 57 -12 80 -37 86 -44
11 -406 -55 -429 -78 -7 -7 13 -9 63 -4 58 5 72 3 72 -8 0 -13 -92 -36 -143
-36 -8 0 -23 -7 -32 -16 -12 -13 -19 -14 -30 -4 -8 7 -26 10 -40 6 -18 -5 -25
-2 -25 8 0 24 69 73 134 94 75 25 270 53 409 60 54 3 58 1 67 -23z m83 -140
c7 -43 8 -45 -29 43 -8 18 -14 40 -14 50 1 28 37 -49 43 -93z m-663 -38 c-26
-13 -48 -67 -49 -122 -1 -31 -16 -63 -25 -54 -7 7 25 162 37 177 5 6 21 12 36
12 l26 0 -25 -13z m226 -16 c-3 -5 -36 -14 -73 -20 -38 -7 -76 -14 -86 -17
-14 -5 -18 -1 -15 13 2 12 15 20 43 24 64 10 137 10 131 0z m-40 -80 c-3 -4
-23 -11 -44 -15 -21 -3 -47 -15 -58 -27 l-19 -22 55 7 c38 4 50 3 40 -4 -8 -5
-23 -10 -32 -10 -22 0 -112 -46 -128 -65 -11 -13 -7 -15 26 -15 103 0 382 59
457 97 33 16 37 0 5 -21 -42 -27 -430 -116 -505 -116 -35 0 -63 22 -63 50 0
18 19 30 49 30 24 0 50 30 62 73 8 30 15 36 42 40 63 8 118 7 113 -2z m-178
-233 c-32 -11 -34 -23 -12 -58 8 -14 -1 -7 -20 14 -20 22 -36 43 -36 48 0 4
21 8 48 7 43 -1 45 -1 20 -11z m1154 -25 c23 -20 24 -73 2 -137 -15 -44 -15
-50 0 -89 11 -28 35 -57 73 -87 30 -24 60 -56 66 -70 6 -14 18 -36 28 -50 26
-40 33 -80 13 -80 -28 0 -168 78 -207 116 -62 60 -67 109 -31 299 24 128 24
127 56 98z m125 -242 c7 -14 12 -36 13 -49 0 -28 -16 -21 -72 32 -31 29 -38
42 -38 74 0 21 3 42 7 45 8 8 74 -66 90 -102z"/>
<path d="M2343 5603 c9 -2 25 -2 35 0 9 3 1 5 -18 5 -19 0 -27 -2 -17 -5z"/>
<path d="M2415 5590 c27 -12 43 -12 25 0 -8 5 -22 9 -30 9 -10 0 -8 -3 5 -9z"/>
<path d="M2657 4429 c-32 -67 -51 -158 -42 -208 8 -43 44 -107 78 -139 l24
-23 6 83 c7 100 30 182 63 225 28 37 29 43 9 43 -9 0 -35 -18 -60 -41 l-44
-41 -3 79 -3 78 -28 -56z"/>
<path d="M1510 4391 l-35 -43 -5 28 c-5 26 -9 21 -39 -51 -19 -44 -36 -101
-39 -127 -4 -44 -3 -48 22 -58 15 -5 55 -10 89 -10 l63 0 12 91 c7 50 17 100
23 111 15 28 4 34 -25 14 -33 -21 -33 -21 -28 18 8 68 0 74 -38 27z"/>
<path d="M2793 4293 c-14 -34 -53 -201 -53 -230 0 -16 45 -68 81 -94 l29 -21
20 44 c22 50 95 138 115 138 7 0 23 9 36 21 l24 20 -50 -4 c-27 -3 -58 -8 -67
-12 -25 -10 -23 15 3 66 11 23 18 43 16 46 -7 7 -93 -32 -101 -46 -18 -29 -28
-8 -24 49 5 69 -6 77 -29 23z"/>
<path d="M2550 4089 c1 -19 8 -52 16 -74 30 -78 30 -76 -7 -69 l-34 6 40 -36
c62 -56 174 -128 189 -123 7 3 16 20 19 39 5 28 1 36 -26 58 -55 42 -110 103
-154 169 -43 64 -43 64 -43 30z"/>
<path d="M2985 4073 c-57 -56 -105 -128 -105 -158 0 -11 7 -31 16 -44 l16 -23
62 59 c33 33 86 79 116 103 l55 43 -45 -6 c-25 -3 -56 -9 -68 -13 l-24 -7 21
41 c35 70 23 71 -44 5z"/>
<path d="M2520 3892 c0 -5 9 -17 20 -27 29 -26 25 -37 -12 -30 l-33 6 45 -38
c25 -21 75 -66 111 -100 36 -35 68 -63 72 -63 6 0 31 110 25 114 -1 1 -23 14
-48 28 -25 14 -72 47 -104 72 -59 45 -76 54 -76 38z"/>
<path d="M3174 3841 c-74 -34 -149 -115 -137 -148 5 -14 33 -18 33 -5 0 5 37
45 81 90 45 45 78 82 73 82 -5 0 -27 -9 -50 -19z"/>
<path d="M3246 3773 c-61 -18 -140 -69 -157 -100 -11 -20 -8 -32 24 -94 21
-39 37 -84 37 -99 0 -60 9 -63 57 -19 49 45 96 68 163 79 l45 7 -45 20 c-36
17 -41 22 -27 28 28 11 20 23 -23 35 -38 10 -47 30 -14 30 8 0 14 6 14 13 0
13 -23 28 -65 42 -17 5 -12 11 35 41 44 27 49 34 30 33 -14 0 -47 -7 -74 -16z"/>
<path d="M2490 3721 c0 -6 14 -20 30 -33 40 -29 38 -38 -7 -38 l-37 0 35 -36
c33 -35 33 -36 9 -31 -14 3 -43 2 -65 -3 -37 -7 -38 -8 -15 -16 38 -12 128
-61 169 -92 56 -43 90 -62 94 -54 3 4 7 51 8 104 4 90 2 98 -19 121 -39 42
-202 105 -202 78z"/>
<path d="M3271 3452 c-70 -35 -98 -70 -81 -103 7 -13 19 -32 28 -42 13 -15 17
-15 31 -3 29 25 138 76 164 76 43 0 40 18 -5 30 -24 6 -47 12 -53 14 -5 1 9
14 30 29 l40 27 -50 0 c-34 0 -67 -9 -104 -28z"/>
<path d="M1394 2828 c20 -23 36 -45 36 -49 0 -4 -34 2 -76 13 -110 28 -117 21
-38 -38 38 -29 102 -79 141 -113 40 -34 77 -61 81 -61 5 0 28 14 51 30 37 28
40 33 30 52 -19 36 -111 129 -144 145 -16 9 -43 26 -58 39 -48 40 -63 29 -23
-18z"/>
<path d="M2335 2614 c-60 -30 -126 -59 -145 -65 -19 -7 -51 -19 -70 -28 l-35
-16 80 -5 80 -5 -47 -28 c-27 -16 -48 -31 -48 -34 0 -3 26 -2 58 1 68 8 161
51 221 102 40 35 43 40 38 77 -3 22 -9 43 -14 47 -4 4 -57 -16 -118 -46z"/>
<path d="M1205 2515 c33 -20 64 -40 68 -44 4 -4 -12 -16 -35 -25 l-43 -17 72
-20 c40 -10 103 -31 140 -44 37 -14 73 -23 80 -21 22 9 15 65 -10 88 -36 32
-217 106 -277 113 l-55 7 60 -37z"/>
<path d="M2685 2530 c12 -19 135 -80 162 -80 23 1 18 4 -25 20 -29 10 -73 30
-98 44 -24 14 -42 21 -39 16z"/>
<path d="M2898 2436 c30 -17 166 -20 179 -4 10 11 -4 14 -92 13 -69 0 -98 -3
-87 -9z"/>
<path d="M2598 2338 c43 -90 142 -218 142 -183 0 3 -24 34 -54 69 -32 38 -56
77 -60 98 -3 19 -19 47 -34 61 l-29 27 35 -72z"/>
<path d="M2472 2326 c-35 -47 -51 -58 -124 -88 -46 -19 -100 -41 -120 -48 -21
-8 -38 -17 -38 -22 0 -4 38 -9 85 -10 l84 -3 -29 -47 c-17 -27 -30 -50 -30
-53 0 -10 105 48 150 82 48 37 69 69 95 146 16 44 16 50 1 72 -9 14 -20 25
-25 25 -5 0 -27 -24 -49 -54z"/>
<path d="M1218 2364 c-4 -3 20 -20 54 -36 l62 -29 -32 -25 c-39 -31 -40 -41
-4 -49 16 -3 45 -19 65 -36 65 -54 42 -110 -68 -167 l-50 -26 33 -9 c37 -11
41 -23 12 -32 -45 -14 -13 -20 125 -23 122 -3 146 -1 151 12 3 8 -4 50 -15 93
-12 43 -31 119 -42 168 -11 50 -24 94 -28 98 -28 28 -246 79 -263 61z"/>
<path d="M1546 2275 c-7 -62 -5 -76 18 -125 17 -40 27 -83 33 -155 l8 -100 6
75 c5 63 2 87 -18 147 -13 40 -23 94 -23 120 1 27 -3 62 -8 78 -8 27 -10 23
-16 -40z"/>
<path d="M2567 2238 c-18 -43 -130 -182 -173 -215 -19 -14 -33 -28 -31 -30 3
-2 35 8 72 22 81 30 78 30 65 6 -18 -35 -11 -40 33 -21 54 25 84 25 92 0 11
-35 -33 -157 -73 -203 -33 -37 -1 -25 74 28 100 71 129 103 138 149 7 34 2 43
-65 134 -39 53 -79 112 -87 130 -9 17 -19 32 -24 32 -4 0 -14 -15 -21 -32z"/>
<path d="M1950 2113 c0 -12 63 -65 115 -98 24 -15 27 -15 17 -2 -8 9 -33 28
-57 42 -24 14 -51 35 -60 47 -8 13 -15 17 -15 11z"/>
<path d="M986 2075 c4 -11 18 -49 31 -84 13 -35 28 -86 33 -115 l9 -51 -3 61
c-3 44 -14 80 -40 135 -20 41 -33 65 -30 54z"/>
<path d="M2780 2080 c0 -17 49 -109 86 -163 50 -73 47 -110 -15 -185 -57 -68
-169 -153 -250 -190 -31 -14 -58 -27 -60 -29 -5 -4 24 -28 54 -45 l20 -11 -20
23 c-15 17 -17 24 -7 28 7 2 39 17 70 32 58 30 83 28 96 -6 8 -21 5 -24 -67
-62 -32 -16 -54 -33 -48 -37 14 -8 44 0 98 27 42 20 44 21 63 3 11 -10 20 -21
20 -24 0 -10 -114 -66 -127 -63 -9 2 -6 -13 8 -45 27 -63 33 -67 24 -16 l-7
42 39 10 c21 6 48 18 61 26 26 19 25 20 42 -68 7 -32 10 -64 7 -71 -3 -7 -23
-18 -46 -26 -23 -7 -46 -19 -52 -27 -16 -18 -29 -16 -29 5 0 9 -14 -12 -30
-46 -17 -35 -30 -76 -30 -90 0 -41 24 -110 43 -130 17 -16 17 -15 1 23 -18 44
-15 120 7 167 15 35 60 61 127 78 63 15 74 8 92 -55 24 -87 -7 -149 -91 -179
-52 -19 -87 -41 -78 -51 4 -3 31 3 60 14 33 12 78 19 116 19 97 -1 132 34 167
169 21 82 22 290 1 317 -8 11 -15 35 -15 53 0 36 -66 145 -94 156 -21 8 -70
109 -87 177 -7 30 -21 66 -31 79 -10 13 -18 29 -18 36 0 6 -9 20 -21 31 -12
10 -32 40 -45 67 -24 46 -34 57 -34 37z m154 -375 c19 -14 36 -38 40 -53 3
-18 22 -38 56 -61 41 -28 50 -39 50 -64 0 -28 -5 -25 -101 72 -63 65 -99 108
-95 117 7 19 12 18 50 -11z"/>
<path d="M2784 1934 c-9 -35 -74 -132 -122 -181 -46 -47 -36 -56 32 -28 20 8
36 13 36 9 0 -3 -12 -25 -26 -50 -14 -24 -23 -44 -19 -44 20 0 100 58 129 94
65 81 70 110 29 174 -34 51 -51 59 -59 26z"/>
<path d="M1395 1885 c-33 -7 -73 -19 -90 -26 l-30 -12 54 -10 53 -9 -43 -45
-44 -46 35 7 c19 4 67 11 105 17 132 20 140 22 143 48 7 46 -6 70 -46 80 -46
13 -62 13 -137 -4z"/>
<path d="M2265 1770 c10 -11 20 -20 23 -20 3 0 -3 9 -13 20 -10 11 -20 20 -23
20 -3 0 3 -9 13 -20z"/>
<path d="M1455 1718 c-107 -9 -296 -56 -302 -74 -3 -8 10 -9 48 -2 62 11 79 6
79 -26 0 -19 -6 -25 -36 -30 -19 -4 -42 -10 -50 -13 -8 -3 -17 4 -23 18 -7 16
-8 -2 -4 -58 5 -71 3 -86 -15 -118 l-22 -36 24 18 c13 10 31 29 39 42 9 16 25
25 43 26 16 1 50 5 77 9 36 6 47 5 47 -5 0 -17 -100 -113 -140 -134 -33 -17
-44 -15 -115 16 -11 5 -36 5 -55 1 l-35 -8 40 -8 c22 -4 59 -19 83 -32 46 -27
46 -38 0 -81 -44 -42 -108 -63 -169 -56 -34 3 -64 1 -77 -6 -28 -15 -29 -35
-2 -26 12 4 38 4 59 0 37 -6 39 -9 45 -49 l7 -43 76 -13 c60 -11 88 -11 133
-2 31 7 70 12 88 12 44 0 251 48 284 66 14 7 36 14 47 14 12 0 21 5 21 10 0 6
-7 10 -16 8 -33 -6 -25 21 10 36 32 13 36 19 36 50 0 20 -11 68 -24 108 -13
40 -26 101 -29 135 -3 36 -13 72 -23 85 -14 20 -15 20 -9 3 4 -11 10 -45 12
-75 3 -30 15 -84 28 -120 28 -80 40 -150 27 -150 -6 0 -17 -3 -25 -6 -12 -4
-17 7 -22 48 -4 29 -19 98 -35 153 -29 104 -56 272 -47 282 15 14 37 -9 37
-38 0 -46 6 -33 14 29 6 46 5 52 -11 51 -10 -1 -63 -6 -118 -11z m-160 -179
c9 -27 -1 -35 -52 -44 -40 -6 -44 -5 -53 20 -5 14 -10 28 -10 30 0 3 19 6 92
13 9 1 20 -7 23 -19z"/>
</g>
</svg>
